<svg id="svg" version="1.1" xmlns="http://www.w3.org/2000/svg" xmlns:xlink="http://www.w3.org/1999/xlink" width="400" height="225" viewBox="0, 0, 400,225"><g id="svgg"><path id="path0" d="M198.917 63.834 C 198.191 63.947,196.965 64.298,196.167 64.620 C 196.029 64.676,195.879 64.728,195.833 64.737 C 195.787 64.745,195.479 64.920,195.147 65.126 C 194.815 65.332,194.497 65.500,194.441 65.500 C 194.137 65.500,191.598 67.951,191.117 68.708 L 190.826 69.167 211.148 69.167 C 232.995 69.167,232.825 69.161,234.861 70.021 C 237.398 71.093,239.683 73.212,240.833 75.559 C 242.080 78.104,242.083 78.132,242.083 86.750 C 242.083 95.192,242.069 95.340,240.994 97.644 C 240.722 98.227,240.500 98.743,240.500 98.791 C 240.500 99.033,244.799 98.679,245.583 98.373 C 249.768 96.739,252.194 94.093,253.264 90.000 C 253.906 87.541,253.834 73.720,253.170 72.083 C 253.096 71.900,252.906 71.387,252.748 70.943 C 252.215 69.445,250.803 67.534,249.391 66.400 C 248.947 66.042,248.558 65.694,248.528 65.625 C 248.497 65.556,248.383 65.500,248.275 65.500 C 248.166 65.500,247.804 65.314,247.469 65.087 C 247.134 64.859,246.198 64.465,245.389 64.212 L 243.917 63.750 221.833 63.727 C 209.688 63.714,199.375 63.763,198.917 63.834 M223.667 144.175 L 223.667 146.849 223.042 146.362 C 221.406 145.087,219.396 145.227,217.969 146.715 C 217.535 147.168,217.189 147.586,217.200 147.644 C 217.211 147.702,217.177 147.862,217.124 148.000 C 215.989 150.984,216.906 154.834,219.011 155.922 C 220.097 156.484,222.292 156.187,223.208 155.354 L 223.667 154.938 223.667 155.469 C 223.667 155.977,223.695 156.000,224.333 156.000 L 225.000 156.000 225.000 148.750 L 225.000 141.500 224.333 141.500 L 223.667 141.500 223.667 144.175 M227.667 148.750 L 227.667 156.000 228.333 156.000 C 228.960 156.000,229.000 155.970,229.000 155.511 L 229.000 155.023 229.850 155.595 C 233.853 158.288,237.798 152.747,235.461 147.713 C 234.427 145.485,231.551 144.799,229.649 146.328 L 229.000 146.849 229.000 144.175 L 229.000 141.500 228.333 141.500 L 227.667 141.500 227.667 148.750 M258.667 148.750 L 258.667 156.000 259.250 156.000 L 259.833 156.000 259.833 154.120 L 259.833 152.240 260.433 151.623 L 261.032 151.006 261.600 151.712 C 261.913 152.099,262.226 152.492,262.295 152.583 C 262.407 152.731,264.183 154.918,264.829 155.702 C 265.060 155.983,266.500 156.154,266.500 155.901 C 266.500 155.787,265.894 154.913,265.471 154.417 C 264.829 153.664,264.567 153.338,264.250 152.901 C 264.067 152.648,263.798 152.324,263.654 152.179 C 263.509 152.035,263.172 151.617,262.904 151.250 C 262.636 150.883,262.315 150.476,262.191 150.346 C 261.998 150.143,262.275 149.803,264.066 148.039 C 266.498 145.643,266.386 145.833,265.372 145.833 L 264.578 145.833 262.206 148.135 L 259.833 150.436 259.833 145.968 L 259.833 141.500 259.250 141.500 L 258.667 141.500 258.667 148.750 M186.944 142.278 C 186.883 142.339,186.833 145.451,186.833 149.194 L 186.833 156.000 187.500 156.000 L 188.167 156.000 188.167 152.750 L 188.167 149.500 191.333 149.500 L 194.500 149.500 194.500 149.000 L 194.500 148.500 191.333 148.500 L 188.167 148.500 188.167 145.917 L 188.167 143.333 191.833 143.333 L 195.500 143.333 195.500 142.750 L 195.500 142.167 191.278 142.167 C 188.956 142.167,187.006 142.217,186.944 142.278 M199.557 145.791 C 198.585 146.201,197.640 147.105,197.159 148.083 C 196.701 149.017,196.556 152.479,196.940 153.333 C 197.043 153.563,197.136 153.806,197.147 153.874 C 197.171 154.018,197.770 154.740,198.232 155.183 C 199.654 156.547,202.672 156.530,204.244 155.150 C 204.928 154.549,204.976 154.285,204.466 153.928 C 204.125 153.689,204.066 153.699,203.674 154.055 C 201.449 156.073,198.376 154.862,197.928 151.792 L 197.813 151.000 201.507 151.000 L 205.200 151.000 205.081 149.807 C 204.749 146.506,202.219 144.666,199.557 145.791 M209.826 145.658 C 209.277 145.824,207.954 146.652,207.788 146.933 C 207.717 147.052,207.560 147.249,207.439 147.370 C 206.625 148.184,206.248 151.259,206.754 152.962 C 207.729 156.246,212.156 157.371,214.335 154.889 C 214.823 154.333,214.835 154.288,214.551 154.072 C 214.154 153.771,213.921 153.777,213.657 154.096 C 211.816 156.314,207.833 154.511,207.833 151.459 L 207.833 151.000 211.417 151.000 L 215.000 151.000 215.000 150.151 C 215.000 147.010,212.505 144.844,209.826 145.658 M240.083 145.937 C 238.152 146.917,237.252 148.765,238.769 148.635 C 239.297 148.590,239.399 148.508,239.562 148.000 C 240.341 145.578,244.498 146.525,244.499 149.125 L 244.500 150.000 242.510 150.000 C 241.363 150.000,240.476 150.071,240.417 150.167 C 240.360 150.258,240.204 150.333,240.070 150.333 C 239.580 150.333,238.498 151.183,238.170 151.827 C 237.411 153.314,237.987 155.134,239.456 155.894 C 240.606 156.489,244.167 155.918,244.167 155.139 C 244.167 154.804,244.483 155.044,244.642 155.500 C 244.798 155.948,244.889 156.000,245.511 156.000 C 246.160 156.000,246.197 155.975,246.072 155.625 C 245.999 155.419,245.897 153.550,245.845 151.472 L 245.750 147.694 245.250 146.987 C 244.238 145.556,241.809 145.062,240.083 145.937 M251.131 145.689 C 247.362 146.752,246.945 154.072,250.553 155.819 C 252.879 156.945,255.966 155.653,256.391 153.375 C 256.491 152.838,256.486 152.833,255.829 152.833 C 255.342 152.833,255.167 152.902,255.167 153.092 C 255.167 154.627,252.464 155.623,250.908 154.661 C 248.995 153.479,248.912 148.640,250.780 147.215 C 252.343 146.024,255.167 147.157,255.167 148.976 C 255.167 149.282,255.263 149.333,255.833 149.333 C 256.570 149.333,256.597 149.273,256.313 148.250 C 255.743 146.196,253.414 145.045,251.131 145.689 M202.225 146.971 C 202.902 147.368,203.622 148.463,203.752 149.292 L 203.863 150.000 200.931 150.000 C 197.598 150.000,197.653 150.030,198.318 148.566 C 199.056 146.941,200.897 146.189,202.225 146.971 M212.057 146.958 C 212.929 147.442,213.667 148.604,213.667 149.493 L 213.667 150.000 210.737 150.000 L 207.807 150.000 207.923 149.458 C 208.164 148.342,209.284 146.931,210.048 146.784 C 210.877 146.623,211.560 146.682,212.057 146.958 M222.059 146.896 C 222.361 147.022,222.846 147.414,223.137 147.767 L 223.667 148.409 223.667 151.004 L 223.667 153.599 222.997 154.253 C 221.426 155.787,218.972 155.122,218.259 152.969 C 217.044 149.302,219.277 145.733,222.059 146.896 M232.886 146.854 C 235.015 147.947,235.407 152.859,233.503 154.581 C 232.518 155.472,230.074 155.010,229.332 153.793 C 228.940 153.150,228.835 148.956,229.193 148.281 C 229.473 147.754,230.488 146.862,230.898 146.781 C 231.620 146.639,232.533 146.673,232.886 146.854 M244.500 152.161 C 244.500 154.592,241.469 156.049,239.762 154.439 C 237.939 152.719,239.720 151.109,243.542 151.022 L 244.500 151.000 244.500 152.161 " stroke="none" fill="#63b353" fill-rule="evenodd"></path><path id="path1" d="M186.333 69.482 C 184.429 69.984,182.585 70.994,181.214 72.288 L 180.511 72.950 182.131 73.058 C 183.021 73.117,185.005 73.165,186.538 73.166 L 189.327 73.167 189.428 72.708 C 189.577 72.031,190.319 70.160,190.594 69.767 C 190.726 69.579,190.833 69.368,190.833 69.296 C 190.833 69.049,187.443 69.189,186.333 69.482 M177.923 78.042 C 177.413 79.648,177.299 91.614,177.766 94.549 C 178.022 96.160,178.869 98.386,179.448 98.970 C 179.568 99.091,179.667 99.259,179.667 99.342 C 179.667 100.223,183.613 103.123,185.833 103.873 L 186.917 104.239 207.708 104.291 L 228.500 104.343 228.500 101.588 L 228.500 98.833 214.011 98.833 C 197.694 98.833,198.205 98.868,195.583 97.594 C 192.883 96.283,190.810 93.941,189.764 91.020 L 189.250 89.583 189.199 83.818 L 189.147 78.052 186.032 77.943 C 180.946 77.765,178.000 77.801,177.923 78.042 M233.333 101.355 L 233.333 103.876 233.986 103.772 C 235.230 103.573,239.153 101.119,239.170 100.529 C 239.172 100.467,239.434 100.117,239.753 99.752 C 240.072 99.386,240.333 99.030,240.333 98.960 C 240.333 98.890,238.758 98.833,236.833 98.833 L 233.333 98.833 233.333 101.355 " stroke="none" fill="#33bbd3" fill-rule="evenodd"></path><path id="path2" d="M174.083 73.176 C 167.590 74.370,164.491 77.410,164.002 83.060 C 163.791 85.501,163.538 104.548,163.693 106.386 C 163.911 108.988,165.476 111.683,167.619 113.148 C 170.451 115.084,173.304 115.351,191.807 115.410 L 205.364 115.453 205.924 116.685 C 207.506 120.161,211.547 124.283,215.126 126.072 C 220.906 128.960,224.152 126.058,224.163 117.995 L 224.167 115.406 225.336 115.189 C 229.411 114.436,231.838 112.115,232.908 107.949 C 233.341 106.262,233.404 105.352,233.362 101.458 L 233.333 98.833 231.008 98.833 L 228.682 98.833 228.612 101.625 C 228.445 108.319,227.359 110.098,223.236 110.432 C 219.631 110.724,218.958 111.743,219.114 116.672 C 219.190 119.051,219.160 120.173,219.004 120.839 C 218.672 122.255,218.712 122.236,217.410 121.581 C 214.246 119.987,211.569 117.113,210.145 113.782 C 209.438 112.129,208.967 111.530,207.861 110.878 L 207.139 110.452 192.694 110.424 C 173.242 110.386,171.398 110.210,169.667 108.227 C 168.523 106.918,168.517 106.814,168.753 93.833 C 168.964 82.179,168.966 82.160,169.617 81.119 C 171.359 78.335,172.638 78.008,182.292 77.880 L 189.167 77.788 189.169 76.186 C 189.170 75.304,189.216 74.309,189.271 73.973 L 189.372 73.362 188.478 73.270 C 186.818 73.098,174.927 73.021,174.083 73.176 M172.500 148.750 L 172.500 156.000 173.167 156.000 L 173.833 156.000 173.833 154.064 L 173.833 152.127 174.375 151.650 C 175.075 151.033,174.989 151.002,175.931 152.208 C 176.378 152.781,176.858 153.377,176.997 153.531 C 177.136 153.686,177.625 154.301,178.083 154.897 C 178.898 155.957,178.934 155.981,179.708 155.990 C 180.736 156.003,180.838 156.211,178.231 152.958 L 175.962 150.126 178.103 147.980 L 180.245 145.833 179.331 145.836 L 178.417 145.839 176.167 148.084 L 173.917 150.328 173.872 145.914 L 173.828 141.500 173.164 141.500 L 172.500 141.500 172.500 148.750 M138.332 142.145 C 136.628 142.707,135.597 143.786,134.808 145.833 C 134.310 147.127,134.506 151.914,135.108 153.172 C 136.113 155.269,137.588 156.167,140.030 156.167 L 141.532 156.167 142.639 157.125 C 143.248 157.652,143.851 158.182,143.979 158.302 C 144.172 158.484,144.292 158.442,144.699 158.052 L 145.188 157.584 144.719 157.186 C 144.461 156.967,143.923 156.506,143.523 156.161 L 142.795 155.534 143.465 154.929 C 145.880 152.746,146.039 146.222,143.738 143.676 C 142.484 142.288,140.018 141.589,138.332 142.145 M158.399 142.403 C 158.112 143.151,158.393 143.583,159.167 143.583 C 159.974 143.583,160.307 142.987,159.825 142.407 C 159.566 142.094,158.518 142.091,158.399 142.403 M141.947 143.716 C 142.382 143.991,142.836 144.502,143.191 145.116 L 143.750 146.083 143.750 149.083 C 143.750 153.543,142.806 155.000,139.917 155.000 C 136.668 155.000,134.816 150.800,136.107 146.360 C 136.933 143.519,139.671 142.280,141.947 143.716 M164.583 145.904 C 161.594 147.282,161.021 153.116,163.660 155.295 C 165.903 157.148,169.844 156.027,170.411 153.375 C 170.612 152.432,169.379 152.574,168.917 153.547 C 168.078 155.314,165.290 155.578,164.165 153.998 C 163.073 152.464,163.078 149.363,164.175 147.821 C 165.532 145.916,168.620 146.575,169.111 148.875 C 169.197 149.282,169.283 149.333,169.873 149.333 L 170.537 149.333 170.421 148.716 C 169.930 146.098,167.109 144.739,164.583 145.904 M147.833 149.801 C 147.833 154.393,147.999 155.063,149.314 155.802 C 150.542 156.492,152.993 156.248,153.958 155.340 L 154.333 154.987 154.333 155.494 C 154.333 155.973,154.368 156.000,155.000 156.000 L 155.667 156.000 155.667 150.917 L 155.667 145.833 155.000 145.833 L 154.333 145.833 154.333 149.458 C 154.333 154.306,153.977 155.005,151.517 154.996 C 149.355 154.989,149.167 154.563,149.167 149.673 L 149.167 145.833 148.500 145.833 L 147.833 145.833 147.833 149.801 M158.500 150.917 L 158.500 156.000 159.167 156.000 L 159.833 156.000 159.833 150.917 L 159.833 145.833 159.167 145.833 L 158.500 145.833 158.500 150.917 " stroke="none" fill="#1c648b" fill-rule="evenodd"></path><path id="path3" d="M190.421 70.227 C 190.180 70.719,189.847 71.571,189.680 72.122 L 189.377 73.123 192.814 73.233 C 203.976 73.590,208.515 73.703,216.750 73.828 C 227.871 73.998,228.429 74.104,230.845 76.497 C 233.484 79.111,233.951 82.795,233.418 96.792 L 233.340 98.833 236.831 98.833 L 240.321 98.833 240.893 97.625 C 241.970 95.352,242.000 95.058,241.998 86.739 C 241.995 78.465,241.963 78.138,240.941 75.945 C 239.469 72.787,236.884 70.616,233.473 69.670 C 232.282 69.340,231.818 69.333,211.557 69.333 L 190.858 69.333 190.421 70.227 M189.210 83.604 C 189.266 87.997,189.337 89.435,189.533 90.083 C 190.811 94.318,193.559 97.105,197.694 98.362 C 198.913 98.733,198.966 98.734,213.690 98.793 L 228.464 98.851 228.562 97.551 C 229.015 91.516,228.801 82.478,228.170 81.052 C 227.168 78.786,227.193 78.792,216.750 78.646 C 211.983 78.579,205.533 78.446,202.417 78.350 C 199.300 78.254,195.038 78.126,192.945 78.067 L 189.139 77.958 189.210 83.604 " stroke="none" fill="#148344" fill-rule="evenodd"></path><path id="path4" d="M189.276 73.918 C 189.216 74.355,189.167 75.444,189.167 76.336 L 189.167 77.959 192.958 78.067 C 195.044 78.127,199.300 78.254,202.417 78.350 C 205.533 78.446,211.983 78.579,216.750 78.646 C 227.193 78.792,227.168 78.786,228.170 81.052 C 228.800 82.477,229.015 91.510,228.562 97.542 L 228.465 98.833 230.884 98.833 L 233.303 98.833 233.396 97.458 C 233.757 92.106,233.584 82.400,233.095 80.583 C 232.221 77.333,230.076 75.134,226.917 74.249 C 226.068 74.011,224.531 73.947,216.750 73.828 C 208.516 73.703,203.978 73.590,192.817 73.233 L 189.385 73.123 189.276 73.918 " stroke="none" fill="#146444" fill-rule="evenodd"></path><path id="path5" d="M201.042 69.292 C 206.610 69.316,215.723 69.316,221.292 69.292 C 226.860 69.267,222.304 69.247,211.167 69.247 C 200.029 69.247,195.473 69.267,201.042 69.292 M242.076 86.667 C 242.076 90.196,242.098 91.640,242.125 89.875 C 242.152 88.110,242.152 85.223,242.125 83.458 C 242.098 81.694,242.076 83.137,242.076 86.667 " stroke="none" fill="#3b9b4b" fill-rule="evenodd"></path><path id="path6" d="M180.955 73.120 C 181.250 73.157,181.775 73.158,182.121 73.122 C 182.467 73.086,182.225 73.055,181.583 73.055 C 180.942 73.054,180.659 73.083,180.955 73.120 M186.049 77.957 C 186.671 77.989,187.646 77.989,188.215 77.957 C 188.784 77.924,188.275 77.898,187.083 77.898 C 185.892 77.898,185.426 77.925,186.049 77.957 M228.568 101.583 C 228.568 103.142,228.593 103.802,228.624 103.050 C 228.655 102.298,228.655 101.023,228.624 100.217 C 228.594 99.410,228.568 100.025,228.568 101.583 " stroke="none" fill="#1c749c" fill-rule="evenodd"></path><path id="path7" d="M191.667 94.552 C 191.667 94.581,191.910 94.825,192.208 95.094 L 192.750 95.583 192.260 95.042 C 191.804 94.537,191.667 94.423,191.667 94.552 M199.458 98.784 C 199.665 98.824,200.002 98.824,200.208 98.784 C 200.415 98.745,200.246 98.712,199.833 98.712 C 199.421 98.712,199.252 98.745,199.458 98.784 " stroke="none" fill="#1c9464" fill-rule="evenodd"></path><path id="path8" d="" stroke="none" fill="#449c4c" fill-rule="evenodd"></path></g></svg>