<?xml version="1.0" standalone="no"?>
<!DOCTYPE svg PUBLIC "-//W3C//DTD SVG 20010904//EN"
 "http://www.w3.org/TR/2001/REC-SVG-20010904/DTD/svg10.dtd">
<svg version="1.0" xmlns="http://www.w3.org/2000/svg"
 width="218.000000pt" height="218.000000pt" viewBox="0 0 218.000000 218.000000"
 preserveAspectRatio="xMidYMid meet">
<metadata>
Created by potrace 1.14, written by Peter Selinger 2001-2017
</metadata>
<g transform="translate(0.000000,218.000000) scale(0.100000,-0.100000)"
fill="#000000" stroke="none">
<path d="M747 1662 c-10 -10 -17 -33 -17 -50 0 -36 4 -35 -105 -33 -96 1 -113
-12 -113 -84 1 -30 -1 -57 -3 -59 -2 -2 -29 -7 -59 -11 -96 -12 -164 -62 -190
-139 -6 -20 -12 -131 -13 -282 -2 -221 0 -253 15 -281 19 -34 70 -77 105 -87
51 -16 84 -18 376 -21 170 -2 310 -5 310 -7 28 -57 48 -85 90 -127 99 -100
199 -122 239 -53 21 36 26 60 27 133 l1 56 39 7 c89 14 138 93 140 227 l1 47
69 -1 c84 0 101 11 101 64 0 44 -8 41 112 41 44 0 84 5 94 12 15 11 16 45 16
325 0 230 -3 315 -12 326 -11 13 -96 15 -610 15 -566 0 -598 -1 -613 -18z
m-241 -333 c3 -6 6 -98 5 -206 0 -164 2 -197 15 -211 14 -13 75 -15 492 -16
l477 -1 3 -37 c5 -55 -15 -116 -43 -134 -14 -9 -41 -17 -61 -19 -61 -4 -77
-30 -78 -129 -1 -46 -4 -87 -8 -91 -21 -22 -136 81 -166 149 -32 71 -18 69
-370 71 -297 2 -372 8 -408 32 -24 17 -32 82 -29 223 2 80 4 180 4 222 1 67 4
80 27 107 33 39 124 65 140 40z"/>
</g>
</svg>
